<?xml version="1.0" encoding="UTF-8"?>
<svg version="1.1" viewBox="0 0 1920 1920" width="1280" height="1280" xmlns="http://www.w3.org/2000/svg">
<path transform="translate(1723,1651)" d="m0 0h10l13 4 12 7 7 7 8 7 12 12v2h2l9 11 7 14 2 8v10l-4 13-6 10-9 10-9 9-4 5-3 3h-2l-1 3-11 9-10 6-13 4h-10l-13-4-10-6-12-10v-2h-2l-4-5-19-19-7-11-4-10-1-5v-10l4-13 7-12 7-8h2l2-4 17-17 11-9 14-7zm-2 15-10 4-9 7-28 28-6 10-2 6v14l4 10 8 10 26 26 11 7 6 2h14l10-4 10-8 26-26 7-11 2-6v-14l-4-10-7-9-28-28-10-6-6-2z" fill="#040404"/>
<path transform="translate(1339,1651)" d="m0 0h10l13 4 12 7 7 7 8 7 12 12v2h2l9 11 7 14 2 8v10l-4 13-6 10-9 10-9 9-4 5-3 3h-2l-1 3-11 9-10 6-13 4h-10l-13-4-10-6-12-10v-2h-2l-4-5-19-19-7-11-4-10-1-5v-10l4-13 7-12 7-8h2l2-4 17-17 11-9 14-7zm-2 15-10 4-9 7-28 28-6 10-2 6v14l4 10 8 10 26 26 11 7 6 2h14l10-4 10-8 26-26 7-11 2-6v-14l-4-10-7-9-28-28-10-6-6-2z" fill="#040404"/>
<path transform="translate(955,1651)" d="m0 0h10l13 4 12 7 7 7 8 7 12 12v2h2l9 11 7 14 2 8v10l-4 13-6 10-9 10-9 9-4 5-3 3h-2l-1 3-11 9-10 6-13 4h-10l-13-4-10-6-12-10v-2h-2l-4-5-19-19-7-11-4-10-1-5v-10l4-13 7-12 7-8h2l2-4 17-17 11-9 14-7zm-2 15-10 4-9 7-28 28-6 10-2 6v14l4 10 8 10 26 26 11 7 6 2h14l10-4 10-8 26-26 7-11 2-6v-14l-4-10-7-9-28-28-10-6-6-2z" fill="#040404"/>
<path transform="translate(571,1651)" d="m0 0h10l13 4 12 7 7 7 8 7 12 12v2h2l9 11 7 14 2 8v10l-4 13-6 10-9 10-9 9-4 5-3 3h-2l-1 3-11 9-10 6-13 4h-10l-13-4-10-6-12-10v-2h-2l-4-5-19-19-7-11-4-10-1-5v-10l4-13 7-12 7-8h2l2-4 17-17 11-9 14-7zm-2 15-10 4-9 7-28 28-6 10-2 6v14l4 10 8 10 26 26 11 7 6 2h14l10-4 10-8 26-26 7-11 2-6v-14l-4-10-7-9-28-28-10-6-6-2z" fill="#040404"/>
<path transform="translate(187,1651)" d="m0 0h10l13 4 12 7 7 7 8 7 12 12v2h2l9 11 7 14 2 8v10l-4 13-6 10-9 10-9 9-4 5-3 3h-2l-1 3-11 9-10 6-13 4h-10l-13-4-10-6-12-10v-2h-2l-4-5-19-19-7-11-4-10-1-5v-10l4-13 7-12 7-8h2l2-4 17-17 11-9 14-7zm-2 15-10 4-9 7-28 28-6 10-2 6v14l4 10 8 10 26 26 11 7 6 2h14l10-4 10-8 26-26 7-11 2-6v-14l-4-10-7-9-28-28-10-6-6-2z" fill="#040404"/>
<path transform="translate(1531,1459)" d="m0 0h10l13 4 12 7 7 7 8 7 12 12v2h2l9 11 7 14 2 8v10l-4 13-6 10-9 10-9 9-4 5-3 3h-2l-1 3-11 9-10 6-13 4h-10l-13-4-10-6-12-10v-2h-2l-4-5-19-19-7-11-4-10-1-5v-10l4-13 7-12 7-8h2l2-4 17-17 11-9 14-7zm-2 15-10 4-9 7-28 28-6 10-2 6v14l4 10 8 10 26 26 11 7 6 2h14l10-4 10-8 26-26 7-11 2-6v-14l-4-10-7-9-28-28-10-6-6-2z" fill="#040404"/>
<path transform="translate(1147,1459)" d="m0 0h10l13 4 12 7 7 7 8 7 12 12v2h2l9 11 7 14 2 8v10l-4 13-6 10-9 10-9 9-4 5-3 3h-2l-1 3-11 9-10 6-13 4h-10l-13-4-10-6-12-10v-2h-2l-4-5-19-19-7-11-4-10-1-5v-10l4-13 7-12 7-8h2l2-4 17-17 11-9 14-7zm-2 15-10 4-9 7-28 28-6 10-2 6v14l4 10 8 10 26 26 11 7 6 2h14l10-4 10-8 26-26 7-11 2-6v-14l-4-10-7-9-28-28-10-6-6-2z" fill="#040404"/>
<path transform="translate(763,1459)" d="m0 0h10l13 4 12 7 7 7 8 7 12 12v2h2l9 11 7 14 2 8v10l-4 13-6 10-9 10-9 9-4 5-3 3h-2l-1 3-11 9-10 6-13 4h-10l-13-4-10-6-12-10v-2h-2l-4-5-19-19-7-11-4-10-1-5v-10l4-13 7-12 7-8h2l2-4 17-17 11-9 14-7zm-2 15-10 4-9 7-28 28-6 10-2 6v14l4 10 8 10 26 26 11 7 6 2h14l10-4 10-8 26-26 7-11 2-6v-14l-4-10-7-9-28-28-10-6-6-2z" fill="#040404"/>
<path transform="translate(379,1459)" d="m0 0h10l13 4 12 7 7 7 8 7 12 12v2h2l9 11 7 14 2 8v10l-4 13-6 10-9 10-9 9-4 5-3 3h-2l-1 3-11 9-10 6-13 4h-10l-13-4-10-6-12-10v-2h-2l-4-5-19-19-7-11-4-10-1-5v-10l4-13 7-12 7-8h2l2-4 17-17 11-9 14-7zm-2 15-10 4-9 7-28 28-6 10-2 6v14l4 10 8 10 26 26 11 7 6 2h14l10-4 10-8 26-26 7-11 2-6v-14l-4-10-7-9-28-28-10-6-6-2z" fill="#040404"/>
<path transform="translate(1723,1267)" d="m0 0h10l13 4 12 7 7 7 8 7 12 12v2h2l9 11 7 14 2 8v10l-4 13-6 10-9 10-9 9-4 5-3 3h-2l-1 3-11 9-10 6-13 4h-10l-13-4-10-6-12-10v-2h-2l-4-5-19-19-7-11-4-10-1-5v-10l4-13 7-12 7-8h2l2-4 17-17 11-9 14-7zm-2 15-10 4-9 7-28 28-6 10-2 6v14l4 10 8 10 26 26 11 7 6 2h14l10-4 10-8 26-26 7-11 2-6v-14l-4-10-7-9-28-28-10-6-6-2z" fill="#040404"/>
<path transform="translate(1339,1267)" d="m0 0h10l13 4 12 7 7 7 8 7 12 12v2h2l9 11 7 14 2 8v10l-4 13-6 10-9 10-9 9-4 5-3 3h-2l-1 3-11 9-10 6-13 4h-10l-13-4-10-6-12-10v-2h-2l-4-5-19-19-7-11-4-10-1-5v-10l4-13 7-12 7-8h2l2-4 17-17 11-9 14-7zm-2 15-10 4-9 7-28 28-6 10-2 6v14l4 10 8 10 26 26 11 7 6 2h14l10-4 10-8 26-26 7-11 2-6v-14l-4-10-7-9-28-28-10-6-6-2z" fill="#040404"/>
<path transform="translate(955,1267)" d="m0 0h10l13 4 12 7 7 7 8 7 12 12v2h2l9 11 7 14 2 8v10l-4 13-6 10-9 10-9 9-4 5-3 3h-2l-1 3-11 9-10 6-13 4h-10l-13-4-10-6-12-10v-2h-2l-4-5-19-19-7-11-4-10-1-5v-10l4-13 7-12 7-8h2l2-4 17-17 11-9 14-7zm-2 15-10 4-9 7-28 28-6 10-2 6v14l4 10 8 10 26 26 11 7 6 2h14l10-4 10-8 26-26 7-11 2-6v-14l-4-10-7-9-28-28-10-6-6-2z" fill="#040404"/>
<path transform="translate(571,1267)" d="m0 0h10l13 4 12 7 7 7 8 7 12 12v2h2l9 11 7 14 2 8v10l-4 13-6 10-9 10-9 9-4 5-3 3h-2l-1 3-11 9-10 6-13 4h-10l-13-4-10-6-12-10v-2h-2l-4-5-19-19-7-11-4-10-1-5v-10l4-13 7-12 7-8h2l2-4 17-17 11-9 14-7zm-2 15-10 4-9 7-28 28-6 10-2 6v14l4 10 8 10 26 26 11 7 6 2h14l10-4 10-8 26-26 7-11 2-6v-14l-4-10-7-9-28-28-10-6-6-2z" fill="#040404"/>
<path transform="translate(187,1267)" d="m0 0h10l13 4 12 7 7 7 8 7 12 12v2h2l9 11 7 14 2 8v10l-4 13-6 10-9 10-9 9-4 5-3 3h-2l-1 3-11 9-10 6-13 4h-10l-13-4-10-6-12-10v-2h-2l-4-5-19-19-7-11-4-10-1-5v-10l4-13 7-12 7-8h2l2-4 17-17 11-9 14-7zm-2 15-10 4-9 7-28 28-6 10-2 6v14l4 10 8 10 26 26 11 7 6 2h14l10-4 10-8 26-26 7-11 2-6v-14l-4-10-7-9-28-28-10-6-6-2z" fill="#040404"/>
<path transform="translate(1531,1075)" d="m0 0h10l13 4 12 7 7 7 8 7 12 12v2h2l9 11 7 14 2 8v10l-4 13-6 10-9 10-9 9-4 5-3 3h-2l-1 3-11 9-10 6-13 4h-10l-13-4-10-6-12-10v-2h-2l-4-5-19-19-7-11-4-10-1-5v-10l4-13 7-12 7-8h2l2-4 17-17 11-9 14-7zm-2 15-10 4-9 7-28 28-6 10-2 6v14l4 10 8 10 26 26 11 7 6 2h14l10-4 10-8 26-26 7-11 2-6v-14l-4-10-7-9-28-28-10-6-6-2z" fill="#040404"/>
<path transform="translate(1147,1075)" d="m0 0h10l13 4 12 7 7 7 8 7 12 12v2h2l9 11 7 14 2 8v10l-4 13-6 10-9 10-9 9-4 5-3 3h-2l-1 3-11 9-10 6-13 4h-10l-13-4-10-6-12-10v-2h-2l-4-5-19-19-7-11-4-10-1-5v-10l4-13 7-12 7-8h2l2-4 17-17 11-9 14-7zm-2 15-10 4-9 7-28 28-6 10-2 6v14l4 10 8 10 26 26 11 7 6 2h14l10-4 10-8 26-26 7-11 2-6v-14l-4-10-7-9-28-28-10-6-6-2z" fill="#040404"/>
<path transform="translate(763,1075)" d="m0 0h10l13 4 12 7 7 7 8 7 12 12v2h2l9 11 7 14 2 8v10l-4 13-6 10-9 10-9 9-4 5-3 3h-2l-1 3-11 9-10 6-13 4h-10l-13-4-10-6-12-10v-2h-2l-4-5-19-19-7-11-4-10-1-5v-10l4-13 7-12 7-8h2l2-4 17-17 11-9 14-7zm-2 15-10 4-9 7-28 28-6 10-2 6v14l4 10 8 10 26 26 11 7 6 2h14l10-4 10-8 26-26 7-11 2-6v-14l-4-10-7-9-28-28-10-6-6-2z" fill="#040404"/>
<path transform="translate(379,1075)" d="m0 0h10l13 4 12 7 7 7 8 7 12 12v2h2l9 11 7 14 2 8v10l-4 13-6 10-9 10-9 9-4 5-3 3h-2l-1 3-11 9-10 6-13 4h-10l-13-4-10-6-12-10v-2h-2l-4-5-19-19-7-11-4-10-1-5v-10l4-13 7-12 7-8h2l2-4 17-17 11-9 14-7zm-2 15-10 4-9 7-28 28-6 10-2 6v14l4 10 8 10 26 26 11 7 6 2h14l10-4 10-8 26-26 7-11 2-6v-14l-4-10-7-9-28-28-10-6-6-2z" fill="#040404"/>
<path transform="translate(1723,883)" d="m0 0h10l13 4 12 7 7 7 8 7 12 12v2h2l9 11 7 14 2 8v10l-4 13-6 10-9 10-9 9-4 5-3 3h-2l-1 3-11 9-10 6-13 4h-10l-13-4-10-6-12-10v-2h-2l-4-5-19-19-7-11-4-10-1-5v-10l4-13 7-12 7-8h2l2-4 17-17 11-9 14-7zm-2 15-10 4-9 7-28 28-6 10-2 6v14l4 10 8 10 26 26 11 7 6 2h14l10-4 10-8 26-26 7-11 2-6v-14l-4-10-7-9-28-28-10-6-6-2z" fill="#040404"/>
<path transform="translate(1339,883)" d="m0 0h10l13 4 12 7 7 7 8 7 12 12v2h2l9 11 7 14 2 8v10l-4 13-6 10-9 10-9 9-4 5-3 3h-2l-1 3-11 9-10 6-13 4h-10l-13-4-10-6-12-10v-2h-2l-4-5-19-19-7-11-4-10-1-5v-10l4-13 7-12 7-8h2l2-4 17-17 11-9 14-7zm-2 15-10 4-9 7-28 28-6 10-2 6v14l4 10 8 10 26 26 11 7 6 2h14l10-4 10-8 26-26 7-11 2-6v-14l-4-10-7-9-28-28-10-6-6-2z" fill="#040404"/>
<path transform="translate(955,883)" d="m0 0h10l13 4 12 7 7 7 8 7 12 12v2h2l9 11 7 14 2 8v10l-4 13-6 10-9 10-9 9-4 5-3 3h-2l-1 3-11 9-10 6-13 4h-10l-13-4-10-6-12-10v-2h-2l-4-5-19-19-7-11-4-10-1-5v-10l4-13 7-12 7-8h2l2-4 17-17 11-9 14-7zm-2 15-10 4-9 7-28 28-6 10-2 6v14l4 10 8 10 26 26 11 7 6 2h14l10-4 10-8 26-26 7-11 2-6v-14l-4-10-7-9-28-28-10-6-6-2z" fill="#040404"/>
<path transform="translate(571,883)" d="m0 0h10l13 4 12 7 7 7 8 7 12 12v2h2l9 11 7 14 2 8v10l-4 13-6 10-9 10-9 9-4 5-3 3h-2l-1 3-11 9-10 6-13 4h-10l-13-4-10-6-12-10v-2h-2l-4-5-19-19-7-11-4-10-1-5v-10l4-13 7-12 7-8h2l2-4 17-17 11-9 14-7zm-2 15-10 4-9 7-28 28-6 10-2 6v14l4 10 8 10 26 26 11 7 6 2h14l10-4 10-8 26-26 7-11 2-6v-14l-4-10-7-9-28-28-10-6-6-2z" fill="#040404"/>
<path transform="translate(187,883)" d="m0 0h10l13 4 12 7 7 7 8 7 12 12v2h2l9 11 7 14 2 8v10l-4 13-6 10-9 10-9 9-4 5-3 3h-2l-1 3-11 9-10 6-13 4h-10l-13-4-10-6-12-10v-2h-2l-4-5-19-19-7-11-4-10-1-5v-10l4-13 7-12 7-8h2l2-4 17-17 11-9 14-7zm-2 15-10 4-9 7-28 28-6 10-2 6v14l4 10 8 10 26 26 11 7 6 2h14l10-4 10-8 26-26 7-11 2-6v-14l-4-10-7-9-28-28-10-6-6-2z" fill="#040404"/>
<path transform="translate(1531,691)" d="m0 0h10l13 4 12 7 7 7 8 7 12 12v2h2l9 11 7 14 2 8v10l-4 13-6 10-9 10-9 9-4 5-3 3h-2l-1 3-11 9-10 6-13 4h-10l-13-4-10-6-12-10v-2h-2l-4-5-19-19-7-11-4-10-1-5v-10l4-13 7-12 7-8h2l2-4 17-17 11-9 14-7zm-2 15-10 4-9 7-28 28-6 10-2 6v14l4 10 8 10 26 26 11 7 6 2h14l10-4 10-8 26-26 7-11 2-6v-14l-4-10-7-9-28-28-10-6-6-2z" fill="#040404"/>
<path transform="translate(1147,691)" d="m0 0h10l13 4 12 7 7 7 8 7 12 12v2h2l9 11 7 14 2 8v10l-4 13-6 10-9 10-9 9-4 5-3 3h-2l-1 3-11 9-10 6-13 4h-10l-13-4-10-6-12-10v-2h-2l-4-5-19-19-7-11-4-10-1-5v-10l4-13 7-12 7-8h2l2-4 17-17 11-9 14-7zm-2 15-10 4-9 7-28 28-6 10-2 6v14l4 10 8 10 26 26 11 7 6 2h14l10-4 10-8 26-26 7-11 2-6v-14l-4-10-7-9-28-28-10-6-6-2z" fill="#040404"/>
<path transform="translate(763,691)" d="m0 0h10l13 4 12 7 7 7 8 7 12 12v2h2l9 11 7 14 2 8v10l-4 13-6 10-9 10-9 9-4 5-3 3h-2l-1 3-11 9-10 6-13 4h-10l-13-4-10-6-12-10v-2h-2l-4-5-19-19-7-11-4-10-1-5v-10l4-13 7-12 7-8h2l2-4 17-17 11-9 14-7zm-2 15-10 4-9 7-28 28-6 10-2 6v14l4 10 8 10 26 26 11 7 6 2h14l10-4 10-8 26-26 7-11 2-6v-14l-4-10-7-9-28-28-10-6-6-2z" fill="#040404"/>
<path transform="translate(379,691)" d="m0 0h10l13 4 12 7 7 7 8 7 12 12v2h2l9 11 7 14 2 8v10l-4 13-6 10-9 10-9 9-4 5-3 3h-2l-1 3-11 9-10 6-13 4h-10l-13-4-10-6-12-10v-2h-2l-4-5-19-19-7-11-4-10-1-5v-10l4-13 7-12 7-8h2l2-4 17-17 11-9 14-7zm-2 15-10 4-9 7-28 28-6 10-2 6v14l4 10 8 10 26 26 11 7 6 2h14l10-4 10-8 26-26 7-11 2-6v-14l-4-10-7-9-28-28-10-6-6-2z" fill="#040404"/>
<path transform="translate(1723,499)" d="m0 0h10l13 4 12 7 7 7 8 7 12 12v2h2l9 11 7 14 2 8v10l-4 13-6 10-9 10-9 9-4 5-3 3h-2l-1 3-11 9-10 6-13 4h-10l-13-4-10-6-12-10v-2h-2l-4-5-19-19-7-11-4-10-1-5v-10l4-13 7-12 7-8h2l2-4 17-17 11-9 14-7zm-2 15-10 4-9 7-28 28-6 10-2 6v14l4 10 8 10 26 26 11 7 6 2h14l10-4 10-8 26-26 7-11 2-6v-14l-4-10-7-9-28-28-10-6-6-2z" fill="#040404"/>
<path transform="translate(1339,499)" d="m0 0h10l13 4 12 7 7 7 8 7 12 12v2h2l9 11 7 14 2 8v10l-4 13-6 10-9 10-9 9-4 5-3 3h-2l-1 3-11 9-10 6-13 4h-10l-13-4-10-6-12-10v-2h-2l-4-5-19-19-7-11-4-10-1-5v-10l4-13 7-12 7-8h2l2-4 17-17 11-9 14-7zm-2 15-10 4-9 7-28 28-6 10-2 6v14l4 10 8 10 26 26 11 7 6 2h14l10-4 10-8 26-26 7-11 2-6v-14l-4-10-7-9-28-28-10-6-6-2z" fill="#040404"/>
<path transform="translate(955,499)" d="m0 0h10l13 4 12 7 7 7 8 7 12 12v2h2l9 11 7 14 2 8v10l-4 13-6 10-9 10-9 9-4 5-3 3h-2l-1 3-11 9-10 6-13 4h-10l-13-4-10-6-12-10v-2h-2l-4-5-19-19-7-11-4-10-1-5v-10l4-13 7-12 7-8h2l2-4 17-17 11-9 14-7zm-2 15-10 4-9 7-28 28-6 10-2 6v14l4 10 8 10 26 26 11 7 6 2h14l10-4 10-8 26-26 7-11 2-6v-14l-4-10-7-9-28-28-10-6-6-2z" fill="#040404"/>
<path transform="translate(571,499)" d="m0 0h10l13 4 12 7 7 7 8 7 12 12v2h2l9 11 7 14 2 8v10l-4 13-6 10-9 10-9 9-4 5-3 3h-2l-1 3-11 9-10 6-13 4h-10l-13-4-10-6-12-10v-2h-2l-4-5-19-19-7-11-4-10-1-5v-10l4-13 7-12 7-8h2l2-4 17-17 11-9 14-7zm-2 15-10 4-9 7-28 28-6 10-2 6v14l4 10 8 10 26 26 11 7 6 2h14l10-4 10-8 26-26 7-11 2-6v-14l-4-10-7-9-28-28-10-6-6-2z" fill="#040404"/>
<path transform="translate(187,499)" d="m0 0h10l13 4 12 7 7 7 8 7 12 12v2h2l9 11 7 14 2 8v10l-4 13-6 10-9 10-9 9-4 5-3 3h-2l-1 3-11 9-10 6-13 4h-10l-13-4-10-6-12-10v-2h-2l-4-5-19-19-7-11-4-10-1-5v-10l4-13 7-12 7-8h2l2-4 17-17 11-9 14-7zm-2 15-10 4-9 7-28 28-6 10-2 6v14l4 10 8 10 26 26 11 7 6 2h14l10-4 10-8 26-26 7-11 2-6v-14l-4-10-7-9-28-28-10-6-6-2z" fill="#040404"/>
<path transform="translate(1531,307)" d="m0 0h10l13 4 12 7 7 7 8 7 12 12v2h2l9 11 7 14 2 8v10l-4 13-6 10-9 10-9 9-4 5-3 3h-2l-1 3-11 9-10 6-13 4h-10l-13-4-10-6-12-10v-2h-2l-4-5-19-19-7-11-4-10-1-5v-10l4-13 7-12 7-8h2l2-4 17-17 11-9 14-7zm-2 15-10 4-9 7-28 28-6 10-2 6v14l4 10 8 10 26 26 11 7 6 2h14l10-4 10-8 26-26 7-11 2-6v-14l-4-10-7-9-28-28-10-6-6-2z" fill="#040404"/>
<path transform="translate(1147,307)" d="m0 0h10l13 4 12 7 7 7 8 7 12 12v2h2l9 11 7 14 2 8v10l-4 13-6 10-9 10-9 9-4 5-3 3h-2l-1 3-11 9-10 6-13 4h-10l-13-4-10-6-12-10v-2h-2l-4-5-19-19-7-11-4-10-1-5v-10l4-13 7-12 7-8h2l2-4 17-17 11-9 14-7zm-2 15-10 4-9 7-28 28-6 10-2 6v14l4 10 8 10 26 26 11 7 6 2h14l10-4 10-8 26-26 7-11 2-6v-14l-4-10-7-9-28-28-10-6-6-2z" fill="#040404"/>
<path transform="translate(763,307)" d="m0 0h10l13 4 12 7 7 7 8 7 12 12v2h2l9 11 7 14 2 8v10l-4 13-6 10-9 10-9 9-4 5-3 3h-2l-1 3-11 9-10 6-13 4h-10l-13-4-10-6-12-10v-2h-2l-4-5-19-19-7-11-4-10-1-5v-10l4-13 7-12 7-8h2l2-4 17-17 11-9 14-7zm-2 15-10 4-9 7-28 28-6 10-2 6v14l4 10 8 10 26 26 11 7 6 2h14l10-4 10-8 26-26 7-11 2-6v-14l-4-10-7-9-28-28-10-6-6-2z" fill="#040404"/>
<path transform="translate(379,307)" d="m0 0h10l13 4 12 7 7 7 8 7 12 12v2h2l9 11 7 14 2 8v10l-4 13-6 10-9 10-9 9-4 5-3 3h-2l-1 3-11 9-10 6-13 4h-10l-13-4-10-6-12-10v-2h-2l-4-5-19-19-7-11-4-10-1-5v-10l4-13 7-12 7-8h2l2-4 17-17 11-9 14-7zm-2 15-10 4-9 7-28 28-6 10-2 6v14l4 10 8 10 26 26 11 7 6 2h14l10-4 10-8 26-26 7-11 2-6v-14l-4-10-7-9-28-28-10-6-6-2z" fill="#040404"/>
<path transform="translate(1723,115)" d="m0 0h10l13 4 12 7 7 7 8 7 12 12v2h2l9 11 7 14 2 8v10l-4 13-6 10-9 10-9 9-4 5-3 3h-2l-1 3-11 9-10 6-13 4h-10l-13-4-10-6-12-10v-2h-2l-4-5-19-19-7-11-4-10-1-5v-10l4-13 7-12 7-8h2l2-4 17-17 11-9 14-7zm-2 15-10 4-9 7-28 28-6 10-2 6v14l4 10 8 10 26 26 11 7 6 2h14l10-4 10-8 26-26 7-11 2-6v-14l-4-10-7-9-28-28-10-6-6-2z" fill="#040404"/>
<path transform="translate(1339,115)" d="m0 0h10l13 4 12 7 7 7 8 7 12 12v2h2l9 11 7 14 2 8v10l-4 13-6 10-9 10-9 9-4 5-3 3h-2l-1 3-11 9-10 6-13 4h-10l-13-4-10-6-12-10v-2h-2l-4-5-19-19-7-11-4-10-1-5v-10l4-13 7-12 7-8h2l2-4 17-17 11-9 14-7zm-2 15-10 4-9 7-28 28-6 10-2 6v14l4 10 8 10 26 26 11 7 6 2h14l10-4 10-8 26-26 7-11 2-6v-14l-4-10-7-9-28-28-10-6-6-2z" fill="#040404"/>
<path transform="translate(955,115)" d="m0 0h10l13 4 12 7 7 7 8 7 12 12v2h2l9 11 7 14 2 8v10l-4 13-6 10-9 10-9 9-4 5-3 3h-2l-1 3-11 9-10 6-13 4h-10l-13-4-10-6-12-10v-2h-2l-4-5-19-19-7-11-4-10-1-5v-10l4-13 7-12 7-8h2l2-4 17-17 11-9 14-7zm-2 15-10 4-9 7-28 28-6 10-2 6v14l4 10 8 10 26 26 11 7 6 2h14l10-4 10-8 26-26 7-11 2-6v-14l-4-10-7-9-28-28-10-6-6-2z" fill="#040404"/>
<path transform="translate(571,115)" d="m0 0h10l13 4 12 7 7 7 8 7 12 12v2h2l9 11 7 14 2 8v10l-4 13-6 10-9 10-9 9-4 5-3 3h-2l-1 3-11 9-10 6-13 4h-10l-13-4-10-6-12-10v-2h-2l-4-5-19-19-7-11-4-10-1-5v-10l4-13 7-12 7-8h2l2-4 17-17 11-9 14-7zm-2 15-10 4-9 7-28 28-6 10-2 6v14l4 10 8 10 26 26 11 7 6 2h14l10-4 10-8 26-26 7-11 2-6v-14l-4-10-7-9-28-28-10-6-6-2z" fill="#040404"/>
<path transform="translate(187,115)" d="m0 0h10l13 4 12 7 7 7 8 7 12 12v2h2l9 11 7 14 2 8v10l-4 13-6 10-9 10-9 9-4 5-3 3h-2l-1 3-11 9-10 6-13 4h-10l-13-4-10-6-12-10v-2h-2l-4-5-19-19-7-11-4-10-1-5v-10l4-13 7-12 7-8h2l2-4 17-17 11-9 14-7zm-2 15-10 4-9 7-28 28-6 10-2 6v14l4 10 8 10 26 26 11 7 6 2h14l10-4 10-8 26-26 7-11 2-6v-14l-4-10-7-9-28-28-10-6-6-2z" fill="#040404"/>
<path transform="translate(1531,1843)" d="m0 0h10l13 4 12 7 7 7 8 7 12 12v2h2l9 11 7 14 2 8v5h-15l-2-10-5-10-9-10-23-23-10-6-6-2h-14l-10 4-9 7-27 27-6 10-2 6-1 7h-15l1-10 5-12 7-10 5-6h2l2-4 17-17 11-9 14-7z" fill="#050505"/>
<path transform="translate(1147,1843)" d="m0 0h10l13 4 12 7 7 7 8 7 12 12v2h2l9 11 7 14 2 8v5h-15l-2-10-5-10-9-10-23-23-10-6-6-2h-14l-10 4-9 7-27 27-6 10-2 6-1 7h-15l1-10 5-12 7-10 5-6h2l2-4 17-17 11-9 14-7z" fill="#050505"/>
<path transform="translate(763,1843)" d="m0 0h10l13 4 12 7 7 7 8 7 12 12v2h2l9 11 7 14 2 8v5h-15l-2-10-5-10-9-10-23-23-10-6-6-2h-14l-10 4-9 7-27 27-6 10-2 6-1 7h-15l1-10 5-12 7-10 5-6h2l2-4 17-17 11-9 14-7z" fill="#050505"/>
<path transform="translate(379,1843)" d="m0 0h10l13 4 12 7 7 7 8 7 12 12v2h2l9 11 7 14 2 8v5h-15l-2-10-5-10-9-10-23-23-10-6-6-2h-14l-10 4-9 7-27 27-6 10-2 6-1 7h-15l1-10 5-12 7-10 5-6h2l2-4 17-17 11-9 14-7z" fill="#050505"/>
<path transform="translate(1915,1459)" d="m0 0h5v15l-10 2-10 5-10 9-23 23-6 10-2 6v14l4 10 8 10 25 25 11 7 6 2 7 1v15l-10-1-12-5-11-8-7-6v-2h-2l-4-5-19-19-7-11-4-10-1-5v-10l4-13 7-12 7-8h2l2-4 17-17 11-9 14-7z" fill="#040404"/>
<path transform="translate(1915,1075)" d="m0 0h5v15l-10 2-10 5-10 9-23 23-6 10-2 6v14l4 10 8 10 25 25 11 7 6 2 7 1v15l-10-1-12-5-11-8-7-6v-2h-2l-4-5-19-19-7-11-4-10-1-5v-10l4-13 7-12 7-8h2l2-4 17-17 11-9 14-7z" fill="#040404"/>
<path transform="translate(1915,691)" d="m0 0h5v15l-10 2-10 5-10 9-23 23-6 10-2 6v14l4 10 8 10 25 25 11 7 6 2 7 1v15l-10-1-12-5-11-8-7-6v-2h-2l-4-5-19-19-7-11-4-10-1-5v-10l4-13 7-12 7-8h2l2-4 17-17 11-9 14-7z" fill="#040404"/>
<path transform="translate(1915,307)" d="m0 0h5v15l-10 2-10 5-10 9-23 23-6 10-2 6v14l4 10 8 10 25 25 11 7 6 2 7 1v15l-10-1-12-5-11-8-7-6v-2h-2l-4-5-19-19-7-11-4-10-1-5v-10l4-13 7-12 7-8h2l2-4 17-17 11-9 14-7z" fill="#040404"/>
<path transform="translate(0,1459)" d="m0 0 10 1 12 5 10 7 16 15 9 9v2h2l9 11 7 14 2 8v10l-4 13-6 10-9 10-9 9-4 5-3 3h-2l-1 3-11 9-10 6-13 4h-5v-15l10-2 10-5 12-11 20-20 7-11 2-6v-14l-4-10-7-9-27-27-10-6-6-2-7-1z" fill="#040404"/>
<path transform="translate(0,1075)" d="m0 0 10 1 12 5 10 7 16 15 9 9v2h2l9 11 7 14 2 8v10l-4 13-6 10-9 10-9 9-4 5-3 3h-2l-1 3-11 9-10 6-13 4h-5v-15l10-2 10-5 12-11 20-20 7-11 2-6v-14l-4-10-7-9-27-27-10-6-6-2-7-1z" fill="#040404"/>
<path transform="translate(0,691)" d="m0 0 10 1 12 5 10 7 16 15 9 9v2h2l9 11 7 14 2 8v10l-4 13-6 10-9 10-9 9-4 5-3 3h-2l-1 3-11 9-10 6-13 4h-5v-15l10-2 10-5 12-11 20-20 7-11 2-6v-14l-4-10-7-9-27-27-10-6-6-2-7-1z" fill="#040404"/>
<path transform="translate(0,307)" d="m0 0 10 1 12 5 10 7 16 15 9 9v2h2l9 11 7 14 2 8v10l-4 13-6 10-9 10-9 9-4 5-3 3h-2l-1 3-11 9-10 6-13 4h-5v-15l10-2 10-5 12-11 20-20 7-11 2-6v-14l-4-10-7-9-27-27-10-6-6-2-7-1z" fill="#040404"/>
<path transform="translate(1459)" d="m0 0h15l2 10 5 10 11 12 20 20 11 7 6 2h14l10-4 10-8 25-25 7-11 2-6 1-7h15l-1 10-5 12-8 11-14 14-4 5-3 3h-2l-1 3-11 9-10 6-13 4h-10l-13-4-10-6-12-10v-2h-2l-4-5-19-19-7-11-4-10z" fill="#030303"/>
<path transform="translate(1075)" d="m0 0h15l2 10 5 10 11 12 20 20 11 7 6 2h14l10-4 10-8 25-25 7-11 2-6 1-7h15l-1 10-5 12-8 11-14 14-4 5-3 3h-2l-1 3-11 9-10 6-13 4h-10l-13-4-10-6-12-10v-2h-2l-4-5-19-19-7-11-4-10z" fill="#030303"/>
<path transform="translate(691)" d="m0 0h15l2 10 5 10 11 12 20 20 11 7 6 2h14l10-4 10-8 25-25 7-11 2-6 1-7h15l-1 10-5 12-8 11-14 14-4 5-3 3h-2l-1 3-11 9-10 6-13 4h-10l-13-4-10-6-12-10v-2h-2l-4-5-19-19-7-11-4-10z" fill="#030303"/>
<path transform="translate(307)" d="m0 0h15l2 10 5 10 11 12 20 20 11 7 6 2h14l10-4 10-8 25-25 7-11 2-6 1-7h15l-1 10-5 12-8 11-14 14-4 5-3 3h-2l-1 3-11 9-10 6-13 4h-10l-13-4-10-6-12-10v-2h-2l-4-5-19-19-7-11-4-10z" fill="#030303"/>
<path transform="translate(1915,1843)" d="m0 0h5v15l-10 2-10 5-10 9-23 23-6 10-2 6-1 7h-15l1-10 5-12 7-10 5-6h2l2-4 17-17 11-9 14-7z" fill="#050505"/>
<path transform="translate(0,1843)" d="m0 0 10 1 12 5 10 7 16 15 9 9v2h2l9 11 7 14 2 8v5h-15l-2-10-5-10-9-10-23-23-10-6-6-2-7-1z" fill="#050505"/>
<path transform="translate(1843)" d="m0 0h15l2 10 5 10 11 12 20 20 11 7 6 2 7 1v15l-10-1-12-5-11-8-7-6v-2h-2l-4-5-19-19-7-11-4-10z" fill="#030303"/>
<path transform="translate(62)" d="m0 0h15l-1 10-5 12-8 11-14 14-4 5-3 3h-2l-1 3-11 9-10 6-13 4h-5v-15l10-2 10-5 12-11 20-20 7-11 2-6z" fill="#030303"/>
</svg>
